<mxfile host="app.diagrams.net" modified="2024-05-17T14:15:50.692Z" agent="Mozilla/5.0 (Windows NT 10.0; Win64; x64) AppleWebKit/537.36 (KHTML, like Gecko) Chrome/124.0.0.0 Safari/537.36" version="24.4.0" etag="sNGY7qA_WLdzbbJh44Sw" type="github">
  <diagram name="Page-1" id="0tjGeEJxlwfLXxra8BMB">
    <mxGraphModel>
      <root>
        <mxCell id="0" />
        <mxCell id="1" parent="0" />
      </root>
    </mxGraphModel>
  </diagram>
</mxfile>
